<svg width="72" height="122" viewBox="0 0 72 122" fill="none" xmlns="http://www.w3.org/2000/svg">
<g clip-path="url(#clip0_2_3)">
<path fill-rule="evenodd" clip-rule="evenodd" d="M0.109375 0.145447H71.8359V67.6072H0.109375V0.145447ZM12.196 26.9013H25.8686V40.5517L12.196 26.9013ZM51.6825 9.62715C56.003 9.62715 59.5306 13.1419 59.5306 17.4468C59.5306 21.7517 56.003 25.2665 51.6825 25.2665C47.3893 25.2665 43.8617 21.7517 43.8617 17.4468C43.8617 13.1419 47.3893 9.62715 51.6825 9.62715ZM59.5853 50.0334L57.6164 46.6548L55.6475 43.2491H51.7372H47.8268L45.8579 46.6548L43.8891 50.0334L45.8579 53.4119L47.8268 56.7905H51.7372H55.6475L57.6164 53.4119L59.5853 50.0334ZM43.8891 33.7673L45.8579 30.3888L47.8268 27.0103H51.7372H55.6475L57.6164 30.3888L59.5853 33.7673L57.6164 37.1459L55.6475 40.5244H51.7372H47.8268L45.8579 37.1459L43.8891 33.7673ZM35.3847 9.68164L38.8029 11.6434L42.1937 13.5779V17.5013V21.3975L38.8029 23.332L35.3847 25.2938L31.9939 23.332L28.6031 21.3975V17.5013V13.5779L31.9939 11.6434L35.3847 9.68164ZM19.0596 9.68164L22.4504 11.6434L25.8412 13.5779V17.5013V21.3975L22.4504 23.332L19.0596 25.2938L15.6688 23.332L12.278 21.3975V17.5013V13.5779L15.6688 11.6434L19.0596 9.68164ZM28.5211 26.9013H42.221V40.5517L28.5211 26.9013ZM28.5211 43.1673H42.221V56.8177L28.5211 43.1673ZM12.196 43.1673H25.8686V56.8177L12.196 43.1673Z" fill="#E63C24"/>
<path d="M11.9225 73.3017C13.5359 73.3017 15.0672 73.6287 16.4618 74.2281C17.9385 74.8275 19.251 75.6994 20.3449 76.7892C21.4387 77.8791 22.3411 79.1869 22.9427 80.6582C23.5169 82.075 23.845 83.6008 23.845 85.1811C23.845 86.7886 23.5169 88.3144 22.9427 89.7312C22.3411 91.2025 21.4387 92.5103 20.3449 93.6002C19.251 94.69 17.9385 95.5619 16.4618 96.1613C15.0672 96.7607 13.5359 97.0604 11.9225 97.0604C10.3092 97.0604 8.77782 96.7607 7.38321 96.1613C5.90657 95.5619 4.594 94.69 3.50019 93.6002C2.40638 92.5103 1.50399 91.2025 0.902393 89.7312C0.328143 88.3144 0 86.7886 0 85.1811C0 83.6008 0.328143 82.075 0.902393 80.6582C1.50399 79.1869 2.40638 77.8791 3.50019 76.7892C4.594 75.6994 5.90657 74.8275 7.38321 74.2281C8.77782 73.6287 10.3092 73.3017 11.9225 73.3017ZM16.5165 80.6309C15.3407 79.4594 13.7273 78.7237 11.9225 78.7237C11.0201 78.7237 10.1998 78.9144 9.43411 79.2141C8.64109 79.5411 7.93012 80.0315 7.32852 80.6309C6.15268 81.8025 5.4417 83.4101 5.4417 85.1811C5.4417 86.0802 5.60577 86.9248 5.93392 87.6605C6.23471 88.4506 6.72693 89.159 7.32852 89.7584C8.50437 90.93 10.1177 91.6657 11.9225 91.6657C12.8249 91.6657 13.6453 91.475 14.4109 91.1753C15.2039 90.8483 15.9149 90.3579 16.5165 89.7584C17.6924 88.5869 18.4033 86.9793 18.4033 85.1811C18.4033 84.3092 18.2393 83.4646 17.9111 82.7017C17.6103 81.9388 17.1181 81.2304 16.5165 80.6309Z" fill="#E63C24"/>
<path d="M13.071 83.737L25.2396 95.8343L24.2552 96.8425H18.458L9.18799 87.606L13.071 83.737Z" fill="#E63C24"/>
<path d="M48.155 74.1463C48.155 81.857 48.155 88.8593 48.155 96.8425H42.6586V83.0558C40.4983 85.181 38.4474 87.279 36.2872 89.4315L29.8063 82.9741V96.8425H24.2826C24.2826 88.8865 24.2826 81.9115 24.2826 74.1463C25.7592 74.1463 27.2359 74.1463 28.7399 74.1463L36.2598 81.639L43.7797 74.1463H48.155Z" fill="#E63C24"/>
<path d="M66.3943 80.6037C66.3943 77.5521 53.8428 77.6883 54.253 80.6582C54.4717 82.2385 59.011 82.3475 60.2689 82.5109C64.7262 83.0831 72 83.628 72 89.7584C72 90.9845 71.5625 92.1016 70.7695 93.1097C70.0585 94.0089 69.0467 94.799 67.7889 95.4257C66.7224 95.9434 65.4919 96.352 64.1519 96.6245C62.8667 96.897 61.4995 97.0604 60.0775 97.0604C58.6555 97.0604 57.2609 96.897 55.9757 96.6245C54.6358 96.352 53.4053 95.9434 52.3388 95.4257C51.1083 94.799 50.0691 94.0089 49.3582 93.1097C48.5652 92.1016 48.155 90.9845 48.155 89.7584V87.9602H53.5693V89.7584C53.5693 92.81 66.1481 92.3468 65.738 89.7312C65.4919 88.1237 60.9799 88.0147 59.722 87.8512C55.2647 87.279 47.9909 86.7341 47.9909 80.6037C47.9909 79.3776 48.4284 78.2605 49.2214 77.2524C49.9324 76.3533 50.9442 75.5631 52.2021 74.9637C53.2685 74.4188 54.4991 74.0101 55.839 73.7376C57.1242 73.4652 58.4915 73.3017 59.9134 73.3017C61.3354 73.3017 62.73 73.4652 64.0152 73.7376C65.3551 74.0101 66.5857 74.4188 67.6521 74.9637C68.8827 75.5631 69.9218 76.3533 70.6328 77.2524C71.3984 78.2605 71.836 79.3776 71.836 80.6037V82.402H66.3943V80.6037Z" fill="#E63C24"/>
<path d="M59.8861 98.0958C61.4721 98.0958 63.0308 98.4228 64.4254 98.9949C65.902 99.5944 67.2146 100.493 68.3084 101.556C69.4022 102.646 70.2773 103.954 70.9062 105.425C71.4805 106.842 71.8086 108.368 71.8086 109.975C71.8086 111.555 71.4805 113.109 70.9062 114.498C70.2773 115.969 69.4022 117.277 68.3084 118.367C67.2146 119.457 65.902 120.329 64.4254 120.955C63.0308 121.528 61.4721 121.855 59.8861 121.855C58.2727 121.855 56.7414 121.528 55.3194 120.955C53.8701 120.329 52.5302 119.457 51.4637 118.367C50.3699 117.277 49.4675 115.969 48.866 114.498C48.2917 113.109 47.9636 111.555 47.9636 109.975C47.9636 108.368 48.2917 106.842 48.866 105.425C49.4675 103.954 50.3699 102.646 51.4637 101.556C52.5302 100.493 53.8701 99.5944 55.3194 98.9949C56.7414 98.4228 58.2727 98.0958 59.8861 98.0958ZM64.4801 105.398C63.3042 104.226 61.6635 103.491 59.8861 103.491C58.9837 103.491 58.1633 103.681 57.3977 103.981C56.6047 104.308 55.8937 104.798 55.2921 105.398C54.1162 106.569 53.4053 108.177 53.4053 109.975C53.4053 110.847 53.5693 111.692 53.8701 112.455C54.1983 113.218 54.6905 113.926 55.2921 114.525C56.4679 115.697 58.0813 116.433 59.8861 116.433C60.7611 116.433 61.6088 116.269 62.3745 115.942C63.1402 115.615 63.8511 115.152 64.4801 114.525C65.6559 113.381 66.3669 111.746 66.3669 109.975C66.3669 109.076 66.2028 108.231 65.8747 107.496C65.5465 106.706 65.0817 105.997 64.4801 105.398Z" fill="#E63C24"/>
<path d="M48.0456 111.147C47.7448 114.089 46.3775 116.787 44.1626 118.776C43.0961 119.757 41.8382 120.52 40.471 121.037C39.1311 121.555 37.6818 121.855 36.1778 121.855C34.5644 121.855 33.0331 121.528 31.6385 120.955C30.1618 120.329 28.8492 119.457 27.7554 118.367C26.6616 117.277 25.7866 115.969 25.1576 114.498C24.5834 113.109 24.2552 111.555 24.2552 109.975C24.2552 108.368 24.5834 106.842 25.1576 105.425C25.7866 103.954 26.6616 102.646 27.7554 101.556C28.8492 100.493 30.1618 99.5944 31.6385 98.9949C33.0331 98.4228 34.5644 98.0958 36.1778 98.0958C37.2716 98.0958 38.338 98.2321 39.3498 98.5318C41.4281 99.1039 43.3149 100.221 44.8189 101.774L44.9556 101.938L41.0999 105.752C41.0452 105.67 40.9632 105.589 40.8812 105.507C40.0881 104.662 39.049 104.036 37.9279 103.736C37.381 103.572 36.8067 103.491 36.1778 103.491C35.3027 103.491 34.455 103.681 33.6894 103.981C32.9237 104.308 32.1854 104.798 31.5838 105.398C30.4079 106.569 29.6969 108.177 29.6969 109.975C29.6969 110.847 29.861 111.692 30.1892 112.455C30.5173 113.218 30.9822 113.926 31.5838 114.525C32.7596 115.697 34.4003 116.433 36.1778 116.433C37.0255 116.433 37.8185 116.269 38.5295 115.997C39.2678 115.724 39.9514 115.288 40.5257 114.771C41.2366 114.144 41.7289 113.408 42.1117 112.591H34.5917L40.1155 107.114H49.5769L49.0574 109.049L48.1823 109.675L48.0456 111.147Z" fill="#E63C24"/>
<path d="M7.35586 116.16H19.6612L19.6886 114.416H25.0209C25.0209 116.814 25.0209 119.239 25.0209 121.637H1.25787C1.25787 115.697 1.42194 112.346 3.50018 110.329C7.16444 106.733 18.5948 107.823 18.9776 105.425C19.3878 102.809 6.80896 102.319 6.80896 105.371V107.169H1.36725V105.371C1.36725 104.144 1.80478 103.027 2.59779 102.019C3.30877 101.12 4.32054 100.33 5.57842 99.7306C6.64488 99.1856 7.87542 98.7769 9.21534 98.5045C10.5006 98.232 11.8678 98.0685 13.2898 98.0685C14.7391 98.0685 16.1063 98.232 17.3916 98.5045C18.7315 98.7769 19.962 99.1856 21.0285 99.7306C22.259 100.33 23.2981 101.12 24.0091 102.019C24.8021 103.027 25.2123 104.144 25.2123 105.371C25.2123 111.501 18.458 111.937 13.9734 112.509C9.05127 113.136 7.21913 113.054 7.35586 116.16Z" fill="#E63C24"/>
</g>
<defs>
<clipPath id="clip0_2_3">
<rect width="72" height="122" fill="white"/>
</clipPath>
</defs>
</svg>
